<?xml version="1.0" standalone="no"?>
<!DOCTYPE svg PUBLIC "-//W3C//DTD SVG 20010904//EN"
 "http://www.w3.org/TR/2001/REC-SVG-20010904/DTD/svg10.dtd">
<svg version="1.0" xmlns="http://www.w3.org/2000/svg"
 width="24.000000pt" height="24.000000pt" viewBox="0 0 24.000000 24.000000"
 preserveAspectRatio="xMidYMid meet">

<g transform="translate(0.000000,24.000000) scale(0.100000,-0.100000)"
fill="#000000" stroke="none">
<path d="M58 189 c-49 -25 -49 -44 0 -22 20 9 48 16 62 16 14 0 42 -7 63 -16
50 -23 48 -3 -3 23 -49 25 -74 25 -122 -1z"/>
<path d="M75 151 l-40 -18 42 -22 43 -21 43 21 42 22 -40 18 c-22 10 -42 18
-45 18 -3 0 -23 -8 -45 -18z"/>
<path d="M50 77 c0 -17 10 -28 35 -40 33 -16 37 -16 70 0 25 12 35 23 35 40 0
23 -1 23 -35 9 -31 -13 -39 -13 -70 0 -34 14 -35 14 -35 -9z"/>
</g>
</svg>
